#!OML:ASF H:\Terrain\Patient Classification 1\Takeo\Monday\TakeoMonday.ASF
:FULLY-SPECIFIED
:DEGREES
244
root 10.9647 17.7383 0.621741 17.7661 1.96365 -0.943398
lowerback 26.3004 -1.03196 -0.87416
upperback 3.84035 -1.53675 0.223888
thorax -10.3083 -0.672292 1.28011
lowerneck -18.2807 -0.385411 -0.510244
upperneck -18.6805 -0.482993 -0.102677
head -3.1119 -0.215536 0.0394584
rclavicle 2.38542e-015 -1.19271e-015
rhumerus -39.8271 2.20276 -84.4359
rradius 42.2147
rwrist -25.8031
rhand -33.2715 23.8658
rfingers 7.12502
rthumb -6.47628 -6.01514
lclavicle 2.38542e-015 -1.19271e-015
lhumerus -36.2125 4.09257 80.4834
lradius 39.2139
lwrist 18.2219
lhand -25.522 16.1745
lfingers 7.12502
lthumb 1.0074 46.1519
rfemur -41.2469 6.41936 19.0464
rtibia 44.9805
rfoot -8.44745 -9.70745
rtoes -0.795451
lfemur -40.3421 0.181562 -21.876
ltibia 44.1881
lfoot -7.97506 9.06014
ltoes -1.89975
245
root 10.9532 17.8192 0.636179 17.5353 2.0817 -0.835097
lowerback 26.1562 -1.02032 -0.903259
upperback 3.66211 -1.53407 0.193684
thorax -10.4358 -0.668575 1.26177
lowerneck -18.2356 -0.557574 -0.630237
upperneck -18.2047 -0.677014 0.0458898
head -2.94503 -0.308382 0.102317
rclavicle 9.93923e-016 4.77083e-015
rhumerus -40.3331 1.86381 -84.0797
rradius 41.8329
rwrist -25.4412
rhand -32.8392 23.9258
rfingers 7.12502
rthumb -6.05893 -5.96761
lclavicle 9.93923e-016 4.77083e-015
lhumerus -36.8851 4.33046 80.0007
lradius 38.9845
lwrist 18.705
lhand -25.9552 15.8327
lfingers 7.12502
lthumb 0.589021 45.8116
rfemur -40.0407 6.06153 19.1861
rtibia 43.4499
rfoot -7.44645 -9.65833
rtoes -2.57874
lfemur -39.2118 0.0458617 -21.8703
ltibia 42.5743
lfoot -7.3101 9.10123
ltoes -0.995384
246
root 10.9454 17.9066 0.658469 17.1814 2.18896 -0.854093
lowerback 25.9329 -1.04585 -0.802161
upperback 3.6596 -1.54049 0.169968
thorax -10.3253 -0.677556 1.17405
lowerneck -18.5219 -0.526557 -0.560623
upperneck -17.6059 -0.641374 0.0270563
head -2.68823 -0.295201 0.0832292
rclavicle 1.21259e-014 -1.31198e-014
rhumerus -40.5051 1.47485 -83.808
rradius 41.3073
rwrist -24.977
rhand -32.578 23.5136
rfingers 7.12502
rthumb -5.80682 -6.38681
lclavicle 1.21259e-014 -1.31198e-014
lhumerus -37.4477 4.81134 79.4686
lradius 38.9395
lwrist 18.9513
lhand -25.9847 15.5687
lfingers 7.12502
lthumb 0.560481 45.5477
rfemur -38.7557 5.8576 19.3382
rtibia 41.9509
rfoot -6.54162 -9.56237
rtoes -3.01147
lfemur -37.9236 0.161604 -21.8291
ltibia 41.0346
lfoot -6.63143 8.9852
ltoes -1.06784
247
root 10.9415 17.9872 0.67664 16.9727 2.28346 -0.990332
lowerback 25.5921 -1.07418 -0.553347
upperback 3.6413 -1.50669 0.182256
thorax -10.1748 -0.673156 1.02583
lowerneck -18.7083 -0.42612 -0.446047
upperneck -17.2271 -0.535773 -0.14214
head -2.52771 -0.246943 0.0112103
rclavicle 4.96962e-015 -3.18055e-015
rhumerus -40.6599 1.08227 -83.6093
rradius 40.9513
rwrist -24.6015
rhand -32.9068 23.372
rfingers 7.12502
rthumb -6.12423 -6.5195
lclavicle 4.96962e-015 -3.18055e-015
lhumerus -37.8996 5.30342 79.0082
lradius 38.8916
lwrist 19.1282
lhand -26.4146 15.1985
lfingers 7.12502
lthumb 0.145356 45.1782
rfemur -37.7695 5.92664 19.399
rtibia 40.4861
rfoot -6.01386 -9.48006
rtoes -1.2306
lfemur -36.8702 0.349675 -21.6865
ltibia 39.5701
lfoot -5.69439 8.81358
ltoes -1.67878
248
root 10.9377 18.0577 0.690516 16.9556 2.21565 -0.758458
lowerback 25.1352 -1.02495 -0.770123
upperback 3.44468 -1.50568 0.147036
thorax -10.1525 -0.665718 1.10364
lowerneck -18.4375 -0.40813 -0.5737
upperneck -16.9986 -0.482687 -0.0731292
head -2.48701 -0.213182 0.056733
rclavicle -8.34896e-015 2.38542e-015
rhumerus -41.1799 0.886558 -83.2721
rradius 40.9568
rwrist -24.7837
rhand -33.034 23.703
rfingers 7.12502
rthumb -6.24702 -6.18489
lclavicle -8.34896e-015 2.38542e-015
lhumerus -38.5397 5.88293 78.5529
lradius 38.7999
lwrist 19.0562
lhand -27.1587 14.9877
lfingers 7.12502
lthumb -0.573359 44.9666
rfemur -37.0561 6.05554 18.9626
rtibia 39.0481
rfoot -5.59543 -9.31813
rtoes 0.78891
lfemur -36.0154 0.384679 -21.9167
ltibia 38.1404
lfoot -4.70925 8.75517
ltoes -2.33367
249
root 10.9237 18.1218 0.704689 16.8048 2.13051 -0.874848
lowerback 24.6699 -0.952414 -0.873922
upperback 3.34192 -1.42708 0.247844
thorax -10.0193 -0.625185 1.24096
lowerneck -18.2568 -0.460562 -0.975724
upperneck -16.7369 -0.444348 0.383535
head -2.42076 -0.175402 0.272386
rclavicle 2.52457e-014 -3.97569e-016
rhumerus -41.5596 0.798297 -82.8735
rradius 40.9823
rwrist -25.0949
rhand -32.8943 23.7066
rfingers 7.12502
rthumb -6.11213 -6.18521
lclavicle 2.52457e-014 -3.97569e-016
lhumerus -39.0495 6.68644 78.0278
lradius 38.7056
lwrist 18.5943
lhand -27.4899 15.7119
lfingers 7.12502
lthumb -0.893219 45.6898
rfemur -36.1838 6.1867 19.0864
rtibia 37.6937
rfoot -4.82652 -9.16286
rtoes -0.0710263
lfemur -35.0691 0.539037 -21.7347
ltibia 36.7059
lfoot -3.89422 8.68595
ltoes -3.84779
250
root 10.9129 18.1844 0.725673 16.3955 2.23427 -1.16415
lowerback 24.2311 -0.969924 -0.636805
upperback 3.44751 -1.3753 0.341612
thorax -9.67334 -0.612574 1.1808
lowerneck -17.7744 -0.531716 -1.2072
upperneck -16.9669 -0.47811 0.702631
head -2.57211 -0.182034 0.41548
rclavicle -5.36719e-015 1.31198e-014
rhumerus -41.6118 0.616353 -82.6427
rradius 40.7211
rwrist -24.7131
rhand -32.8031 23.2288
rfingers 7.12502
rthumb -6.02413 -6.66553
lclavicle -5.36719e-015 1.31198e-014
lhumerus -39.2649 7.14542 77.5358
lradius 38.5069
lwrist 18.2421
lhand -27.7247 16.1588
lfingers 7.12502
lthumb -1.12004 46.1356
rfemur -34.9975 6.11395 19.5213
rtibia 36.4709
rfoot -4.04722 -8.91219
rtoes -2.22941
lfemur -33.8505 0.671406 -21.3639
ltibia 35.3035
lfoot -3.31354 8.53791
ltoes -5.36072
251
root 10.9134 18.2446 0.751614 15.9908 2.27072 -0.863994
lowerback 24.0629 -1.00564 -0.775421
upperback 3.30221 -1.46984 0.22666
thorax -9.74489 -0.653051 1.16148
lowerneck -16.6897 -0.518092 -1.31108
upperneck -17.3289 -0.451409 0.76472
head -2.8651 -0.163662 0.45856
rclavicle 3.97569e-015 -1.59028e-015
rhumerus -42.069 0.613035 -82.5122
rradius 40.4666
rwrist -24.4761
rhand -32.5685 23.1844
rfingers 7.12502
rthumb -5.79759 -6.71625
lclavicle 3.97569e-015 -1.59028e-015
lhumerus -40.0533 7.15508 77.0503
lradius 38.3536
lwrist 18.0387
lhand -27.9324 15.7815
lfingers 7.12502
lthumb -1.32061 45.7571
rfemur -33.8017 5.88487 19.2198
rtibia 35.2966
rfoot -3.50541 -8.59164
rtoes -1.80416
lfemur -32.5956 0.53478 -21.6458
ltibia 34.0199
lfoot -2.82222 8.51036
ltoes -5.81283
252
root 10.9069 18.2859 0.763148 15.7326 2.22394 -0.775542
lowerback 23.9806 -1.02772 -0.844912
upperback 2.98528 -1.52536 0.169736
thorax -10.0558 -0.673493 1.1592
lowerneck -16.3443 -0.487226 -1.30196
upperneck -16.8577 -0.418779 0.738377
head -2.75166 -0.149256 0.447866
rclavicle -8.34896e-015 7.15625e-015
rhumerus -42.77 0.80285 -82.4588
rradius 40.4978
rwrist -24.693
rhand -32.5501 23.622
rfingers 7.12502
rthumb -5.77983 -6.27919
lclavicle -8.34896e-015 7.15625e-015
lhumerus -41.0127 7.07198 76.5478
lradius 38.1543
lwrist 18.0628
lhand -27.8597 15.1506
lfingers 7.12502
lthumb -1.25045 45.1267
rfemur -32.8103 5.89355 19.1547
rtibia 34.1072
rfoot -3.00114 -8.50674
rtoes -1.17881
lfemur -31.6726 0.480788 -21.683
ltibia 32.8635
lfoot -2.30134 8.6334
ltoes -5.5477
253
root 10.8935 18.3267 0.771153 15.3644 2.4403 -1.12178
lowerback 23.47 -1.09495 -0.430966
upperback 3.13374 -1.49711 0.23573
thorax -9.6269 -0.679989 0.971814
lowerneck -17.1949 -0.547907 -0.836693
upperneck -16.0696 -0.587904 0.435663
head -2.34656 -0.258088 0.262012
rclavicle -6.75868e-015 4.77083e-015
rhumerus -42.7551 0.691399 -82.3936
rradius 40.5304
rwrist -24.6406
rhand -33.009 23.6318
rfingers 7.12502
rthumb -6.22286 -6.25679
lclavicle -6.75868e-015 4.77083e-015
lhumerus -40.8571 7.08377 76.1741
lradius 37.6657
lwrist 18.0429
lhand -27.4907 14.5391
lfingers 7.12502
lthumb -0.894058 44.517
rfemur -31.717 6.02446 19.6301
rtibia 32.9491
rfoot -2.61181 -8.72972
rtoes -1.29398
lfemur -30.7115 0.385202 -21.1707
ltibia 31.8013
lfoot -1.96528 8.74134
ltoes -4.81691
254
root 10.888 18.3748 0.791362 14.7389 2.81745 -1.30581
lowerback 23.0787 -1.19466 0.0155243
upperback 3.37462 -1.50915 0.289751
thorax -9.1601 -0.704388 0.766294
lowerneck -17.5854 -0.641247 -0.778756
upperneck -15.5198 -0.711235 0.49704
head -2.09865 -0.323784 0.264991
rclavicle -1.35174e-014 -1.59028e-015
rhumerus -42.6104 0.279566 -82.1062
rradius 40.307
rwrist -24.3629
rhand -33.1702 23.2066
rfingers 7.12502
rthumb -6.37853 -6.67738
lclavicle -1.35174e-014 -1.59028e-015
lhumerus -40.6425 7.06198 75.8732
lradius 37.2571
lwrist 17.6947
lhand -27.093 14.7583
lfingers 7.12502
lthumb -0.50992 44.7374
rfemur -30.2697 5.80831 20.0251
rtibia 31.8748
rfoot -2.33075 -8.82364
rtoes -1.90682
lfemur -29.4555 0.121705 -20.8389
ltibia 30.8652
lfoot -1.6081 8.68502
ltoes -4.90932
255
root 10.8805 18.4047 0.805964 14.117 3.11057 -1.29642
lowerback 23.0539 -1.28815 0.125971
upperback 3.31446 -1.59843 0.336995
thorax -9.21456 -0.748852 0.782503
lowerneck -16.8402 -0.632101 -1.36847
upperneck -15.3572 -0.563355 1.09173
head -2.15317 -0.223283 0.559773
rclavicle 1.35174e-014 -1.78906e-015
rhumerus -42.8913 0.106753 -81.8488
rradius 40.0086
rwrist -24.1427
rhand -33.1013 22.7982
rfingers 7.12502
rthumb -6.31198 -7.08771
lclavicle 1.35174e-014 -1.78906e-015
lhumerus -41.0462 7.03687 75.477
lradius 37.0698
lwrist 17.5231
lhand -26.8835 15.7123
lfingers 7.12502
lthumb -0.307551 45.6918
rfemur -28.9312 5.49936 20.2406
rtibia 30.9007
rfoot -1.96477 -8.81203
rtoes -2.80257
lfemur -28.3182 -0.0131006 -20.7853
ltibia 29.9852
lfoot -1.04383 8.5013
ltoes -5.96413
256
root 10.8672 18.422 0.809325 13.6759 3.22487 -0.934724
lowerback 22.9415 -1.28159 -0.265453
upperback 3.24468 -1.68904 0.308301
thorax -9.22096 -0.778783 1.00064
lowerneck -16.4476 -0.671452 -1.66616
upperneck -15.319 -0.55643 1.33787
head -2.19885 -0.207221 0.690037
rclavicle 1.63003e-014 -1.23246e-014
rhumerus -43.0516 -5.57877e-005 -81.6314
rradius 39.7504
rwrist -23.801
rhand -33.0149 22.5136
rfingers 7.12502
rthumb -6.22857 -7.37487
lclavicle 1.63003e-014 -1.23246e-014
lhumerus -41.3077 7.30894 75.035
lradius 36.807
lwrist 17.142
lhand -26.7005 16.1022
lfingers 7.12502
lthumb -0.130821 46.0819
rfemur -27.9698 5.43545 19.9685
rtibia 30.043
rfoot -1.65179 -8.95153
rtoes -3.44505
lfemur -27.3896 -0.0798563 -21.1658
ltibia 29.0807
lfoot -0.523643 8.48724
ltoes -6.53512
257
root 10.8576 18.4407 0.812906 13.3385 3.19579 -0.509597
lowerback 22.498 -1.19252 -0.687055
upperback 3.31387 -1.68018 0.24952
thorax -8.89769 -0.765568 1.1617
lowerneck -17.3395 -0.840927 -1.61883
upperneck -14.397 -0.789283 1.21539
head -1.75036 -0.325186 0.626442
rclavicle 2.127e-014 0
rhumerus -42.9134 -0.229141 -81.3261
rradius 39.6326
rwrist -23.6833
rhand -32.8302 22.79
rfingers 7.12502
rthumb -6.05027 -7.10361
lclavicle 2.127e-014 0
lhumerus -41.3027 7.68741 74.6199
lradius 36.5329
lwrist 16.8201
lhand -26.0677 15.5041
lfingers 7.12502
lthumb 0.480373 45.4833
rfemur -27.1949 5.57313 19.5206
rtibia 29.2973
rfoot -1.48468 -9.14323
rtoes -3.68261
lfemur -26.5386 -0.151336 -21.6564
ltibia 28.248
lfoot -0.0863351 8.72112
ltoes -6.32801
